<mxfile host="app.diagrams.net" agent="Mozilla/5.0 (Windows NT 10.0; Win64; x64) AppleWebKit/537.36 (KHTML, like Gecko) Chrome/129.0.0.0 Safari/537.36 Edg/129.0.0.0" version="24.7.17">
  <diagram name="Page-1" id="fVNdv56WWvk22nbqebwp">
    <mxGraphModel dx="1895" dy="1027" grid="1" gridSize="10" guides="1" tooltips="1" connect="1" arrows="1" fold="1" page="1" pageScale="1" pageWidth="850" pageHeight="1100" math="0" shadow="0">
      <root>
        <mxCell id="0" />
        <mxCell id="1" parent="0" />
        <mxCell id="7fQHNvSUPZynnp-n0nr5-1" value="End" style="ellipse;whiteSpace=wrap;html=1;" vertex="1" parent="1">
          <mxGeometry x="680" y="425" width="120" height="50" as="geometry" />
        </mxCell>
        <mxCell id="7fQHNvSUPZynnp-n0nr5-4" value="" style="edgeStyle=orthogonalEdgeStyle;rounded=0;orthogonalLoop=1;jettySize=auto;html=1;" edge="1" parent="1" source="7fQHNvSUPZynnp-n0nr5-2" target="7fQHNvSUPZynnp-n0nr5-3">
          <mxGeometry relative="1" as="geometry" />
        </mxCell>
        <mxCell id="7fQHNvSUPZynnp-n0nr5-2" value="Start" style="ellipse;whiteSpace=wrap;html=1;" vertex="1" parent="1">
          <mxGeometry x="300" y="110" width="120" height="60" as="geometry" />
        </mxCell>
        <mxCell id="7fQHNvSUPZynnp-n0nr5-8" value="" style="edgeStyle=orthogonalEdgeStyle;rounded=0;orthogonalLoop=1;jettySize=auto;html=1;" edge="1" parent="1" source="7fQHNvSUPZynnp-n0nr5-3" target="7fQHNvSUPZynnp-n0nr5-5">
          <mxGeometry relative="1" as="geometry" />
        </mxCell>
        <mxCell id="7fQHNvSUPZynnp-n0nr5-3" value="Nhap n so tu&amp;nbsp;&lt;div&gt;nhien&lt;/div&gt;" style="shape=parallelogram;perimeter=parallelogramPerimeter;whiteSpace=wrap;html=1;fixedSize=1;" vertex="1" parent="1">
          <mxGeometry x="300" y="210" width="120" height="60" as="geometry" />
        </mxCell>
        <mxCell id="7fQHNvSUPZynnp-n0nr5-9" value="" style="edgeStyle=orthogonalEdgeStyle;rounded=0;orthogonalLoop=1;jettySize=auto;html=1;" edge="1" parent="1" source="7fQHNvSUPZynnp-n0nr5-5" target="7fQHNvSUPZynnp-n0nr5-6">
          <mxGeometry relative="1" as="geometry" />
        </mxCell>
        <mxCell id="7fQHNvSUPZynnp-n0nr5-5" value="Khai bao count = 0,&lt;div&gt;&amp;nbsp;i = 0&lt;/div&gt;" style="rounded=0;whiteSpace=wrap;html=1;" vertex="1" parent="1">
          <mxGeometry x="300" y="310" width="120" height="60" as="geometry" />
        </mxCell>
        <mxCell id="7fQHNvSUPZynnp-n0nr5-11" value="" style="edgeStyle=orthogonalEdgeStyle;rounded=0;orthogonalLoop=1;jettySize=auto;html=1;" edge="1" parent="1" source="7fQHNvSUPZynnp-n0nr5-6" target="7fQHNvSUPZynnp-n0nr5-10">
          <mxGeometry relative="1" as="geometry" />
        </mxCell>
        <mxCell id="7fQHNvSUPZynnp-n0nr5-6" value="i &amp;lt; n" style="rhombus;whiteSpace=wrap;html=1;" vertex="1" parent="1">
          <mxGeometry x="300" y="410" width="120" height="80" as="geometry" />
        </mxCell>
        <mxCell id="7fQHNvSUPZynnp-n0nr5-10" value="in ra count" style="shape=parallelogram;perimeter=parallelogramPerimeter;whiteSpace=wrap;html=1;fixedSize=1;" vertex="1" parent="1">
          <mxGeometry x="510" y="420" width="120" height="60" as="geometry" />
        </mxCell>
        <mxCell id="7fQHNvSUPZynnp-n0nr5-14" value="Dung" style="text;html=1;align=center;verticalAlign=middle;whiteSpace=wrap;rounded=0;" vertex="1" parent="1">
          <mxGeometry x="350" y="510" width="60" height="30" as="geometry" />
        </mxCell>
        <mxCell id="7fQHNvSUPZynnp-n0nr5-19" value="" style="edgeStyle=orthogonalEdgeStyle;rounded=0;orthogonalLoop=1;jettySize=auto;html=1;" edge="1" parent="1" source="7fQHNvSUPZynnp-n0nr5-15" target="7fQHNvSUPZynnp-n0nr5-18">
          <mxGeometry relative="1" as="geometry" />
        </mxCell>
        <mxCell id="7fQHNvSUPZynnp-n0nr5-15" value="Nhap so tu nhien num" style="rounded=0;whiteSpace=wrap;html=1;" vertex="1" parent="1">
          <mxGeometry x="300" y="560" width="120" height="60" as="geometry" />
        </mxCell>
        <mxCell id="7fQHNvSUPZynnp-n0nr5-16" value="" style="endArrow=classic;html=1;rounded=0;exitX=0.5;exitY=1;exitDx=0;exitDy=0;entryX=0.5;entryY=0;entryDx=0;entryDy=0;" edge="1" parent="1" source="7fQHNvSUPZynnp-n0nr5-6" target="7fQHNvSUPZynnp-n0nr5-15">
          <mxGeometry width="50" height="50" relative="1" as="geometry">
            <mxPoint x="400" y="520" as="sourcePoint" />
            <mxPoint x="450" y="470" as="targetPoint" />
          </mxGeometry>
        </mxCell>
        <mxCell id="7fQHNvSUPZynnp-n0nr5-17" value="Sai" style="text;html=1;align=center;verticalAlign=middle;whiteSpace=wrap;rounded=0;" vertex="1" parent="1">
          <mxGeometry x="440" y="420" width="60" height="30" as="geometry" />
        </mxCell>
        <mxCell id="7fQHNvSUPZynnp-n0nr5-22" value="" style="edgeStyle=orthogonalEdgeStyle;rounded=0;orthogonalLoop=1;jettySize=auto;html=1;" edge="1" parent="1" source="7fQHNvSUPZynnp-n0nr5-18" target="7fQHNvSUPZynnp-n0nr5-20">
          <mxGeometry relative="1" as="geometry" />
        </mxCell>
        <mxCell id="7fQHNvSUPZynnp-n0nr5-35" value="" style="edgeStyle=orthogonalEdgeStyle;rounded=0;orthogonalLoop=1;jettySize=auto;html=1;" edge="1" parent="1" source="7fQHNvSUPZynnp-n0nr5-18" target="7fQHNvSUPZynnp-n0nr5-34">
          <mxGeometry relative="1" as="geometry" />
        </mxCell>
        <mxCell id="7fQHNvSUPZynnp-n0nr5-18" value="num &amp;gt; 0" style="rhombus;whiteSpace=wrap;html=1;" vertex="1" parent="1">
          <mxGeometry x="300" y="670" width="120" height="80" as="geometry" />
        </mxCell>
        <mxCell id="7fQHNvSUPZynnp-n0nr5-20" value="Chuong trinh loi" style="shape=parallelogram;perimeter=parallelogramPerimeter;whiteSpace=wrap;html=1;fixedSize=1;" vertex="1" parent="1">
          <mxGeometry x="510" y="680" width="120" height="60" as="geometry" />
        </mxCell>
        <mxCell id="7fQHNvSUPZynnp-n0nr5-21" value="" style="endArrow=classic;html=1;rounded=0;exitX=1;exitY=0.5;exitDx=0;exitDy=0;entryX=0;entryY=0.5;entryDx=0;entryDy=0;" edge="1" parent="1" source="7fQHNvSUPZynnp-n0nr5-10" target="7fQHNvSUPZynnp-n0nr5-1">
          <mxGeometry width="50" height="50" relative="1" as="geometry">
            <mxPoint x="400" y="420" as="sourcePoint" />
            <mxPoint x="450" y="370" as="targetPoint" />
            <Array as="points" />
          </mxGeometry>
        </mxCell>
        <mxCell id="7fQHNvSUPZynnp-n0nr5-23" value="" style="endArrow=classic;html=1;rounded=0;entryX=1;entryY=0.5;entryDx=0;entryDy=0;exitX=0.5;exitY=0;exitDx=0;exitDy=0;" edge="1" parent="1" source="7fQHNvSUPZynnp-n0nr5-20" target="7fQHNvSUPZynnp-n0nr5-15">
          <mxGeometry width="50" height="50" relative="1" as="geometry">
            <mxPoint x="400" y="620" as="sourcePoint" />
            <mxPoint x="450" y="570" as="targetPoint" />
            <Array as="points">
              <mxPoint x="570" y="590" />
            </Array>
          </mxGeometry>
        </mxCell>
        <mxCell id="7fQHNvSUPZynnp-n0nr5-24" value="Sai" style="text;html=1;align=center;verticalAlign=middle;whiteSpace=wrap;rounded=0;rotation=0;" vertex="1" parent="1">
          <mxGeometry x="440" y="680" width="60" height="30" as="geometry" />
        </mxCell>
        <mxCell id="7fQHNvSUPZynnp-n0nr5-25" value="count = count + 1" style="rounded=0;whiteSpace=wrap;html=1;" vertex="1" parent="1">
          <mxGeometry x="300" y="950" width="120" height="60" as="geometry" />
        </mxCell>
        <mxCell id="7fQHNvSUPZynnp-n0nr5-27" value="Dung" style="text;html=1;align=center;verticalAlign=middle;whiteSpace=wrap;rounded=0;" vertex="1" parent="1">
          <mxGeometry x="350" y="760" width="60" height="30" as="geometry" />
        </mxCell>
        <mxCell id="7fQHNvSUPZynnp-n0nr5-28" value="i = i + 1" style="rounded=0;whiteSpace=wrap;html=1;" vertex="1" parent="1">
          <mxGeometry x="110" y="950" width="120" height="60" as="geometry" />
        </mxCell>
        <mxCell id="7fQHNvSUPZynnp-n0nr5-29" value="" style="endArrow=classic;html=1;rounded=0;exitX=0;exitY=0.5;exitDx=0;exitDy=0;entryX=1;entryY=0.5;entryDx=0;entryDy=0;" edge="1" parent="1" source="7fQHNvSUPZynnp-n0nr5-25" target="7fQHNvSUPZynnp-n0nr5-28">
          <mxGeometry width="50" height="50" relative="1" as="geometry">
            <mxPoint x="400" y="820" as="sourcePoint" />
            <mxPoint x="450" y="770" as="targetPoint" />
          </mxGeometry>
        </mxCell>
        <mxCell id="7fQHNvSUPZynnp-n0nr5-30" value="" style="endArrow=classic;html=1;rounded=0;exitX=0.5;exitY=0;exitDx=0;exitDy=0;entryX=0;entryY=0.5;entryDx=0;entryDy=0;" edge="1" parent="1" source="7fQHNvSUPZynnp-n0nr5-28" target="7fQHNvSUPZynnp-n0nr5-6">
          <mxGeometry relative="1" as="geometry">
            <mxPoint x="370" y="690" as="sourcePoint" />
            <mxPoint x="470" y="690" as="targetPoint" />
            <Array as="points">
              <mxPoint x="170" y="450" />
            </Array>
          </mxGeometry>
        </mxCell>
        <mxCell id="7fQHNvSUPZynnp-n0nr5-38" value="" style="edgeStyle=orthogonalEdgeStyle;rounded=0;orthogonalLoop=1;jettySize=auto;html=1;" edge="1" parent="1" source="7fQHNvSUPZynnp-n0nr5-34" target="7fQHNvSUPZynnp-n0nr5-25">
          <mxGeometry relative="1" as="geometry" />
        </mxCell>
        <mxCell id="7fQHNvSUPZynnp-n0nr5-34" value="num/2! khac 0" style="rhombus;whiteSpace=wrap;html=1;" vertex="1" parent="1">
          <mxGeometry x="300" y="810" width="120" height="80" as="geometry" />
        </mxCell>
        <mxCell id="7fQHNvSUPZynnp-n0nr5-36" value="Chuong trinh loi" style="shape=parallelogram;perimeter=parallelogramPerimeter;whiteSpace=wrap;html=1;fixedSize=1;" vertex="1" parent="1">
          <mxGeometry x="500" y="820" width="120" height="60" as="geometry" />
        </mxCell>
        <mxCell id="7fQHNvSUPZynnp-n0nr5-37" value="" style="endArrow=classic;html=1;rounded=0;entryX=0;entryY=0.5;entryDx=0;entryDy=0;exitX=1;exitY=0.5;exitDx=0;exitDy=0;" edge="1" parent="1" source="7fQHNvSUPZynnp-n0nr5-34" target="7fQHNvSUPZynnp-n0nr5-36">
          <mxGeometry width="50" height="50" relative="1" as="geometry">
            <mxPoint x="370" y="880" as="sourcePoint" />
            <mxPoint x="420" y="830" as="targetPoint" />
          </mxGeometry>
        </mxCell>
        <mxCell id="7fQHNvSUPZynnp-n0nr5-39" value="Sai" style="text;html=1;align=center;verticalAlign=middle;whiteSpace=wrap;rounded=0;" vertex="1" parent="1">
          <mxGeometry x="425" y="820" width="60" height="30" as="geometry" />
        </mxCell>
        <mxCell id="7fQHNvSUPZynnp-n0nr5-40" value="Dung" style="text;html=1;align=center;verticalAlign=middle;whiteSpace=wrap;rounded=0;" vertex="1" parent="1">
          <mxGeometry x="350" y="900" width="60" height="30" as="geometry" />
        </mxCell>
        <mxCell id="7fQHNvSUPZynnp-n0nr5-41" value="" style="endArrow=classic;html=1;rounded=0;entryX=0.5;entryY=1;entryDx=0;entryDy=0;exitX=1;exitY=0.75;exitDx=0;exitDy=0;" edge="1" parent="1" source="7fQHNvSUPZynnp-n0nr5-36" target="7fQHNvSUPZynnp-n0nr5-1">
          <mxGeometry width="50" height="50" relative="1" as="geometry">
            <mxPoint x="740" y="850" as="sourcePoint" />
            <mxPoint x="160" y="520" as="targetPoint" />
            <Array as="points">
              <mxPoint x="740" y="862" />
            </Array>
          </mxGeometry>
        </mxCell>
      </root>
    </mxGraphModel>
  </diagram>
</mxfile>
